{"title":"Lex.Is.A.Mother.Fucker.2.HDRip.SS.x264.Iou1","uid":9380368,"size":1557535025,"categoryP":"porn","categoryS":"movies","magnet":"?xt=urn:btih:8ce4323ad554d8d82cc5d8957c7fd16c9cb7bc11&amp;dn=Lex.Is.A.Mother.Fucker.2.HDRip.SS.x264.Iou1&amp;tr=udp%3A%2F%2Ftracker.openbittorrent.com%3A80&amp;tr=udp%3A%2F%2Fopen.demonii.com%3A1337&amp;tr=udp%3A%2F%2Ftracker.coppersurfer.tk%3A6969&amp;tr=udp%3A%2F%2Fexodus.desync.com%3A6969","seeders":2,"leechers":0,"uploader":"jaybee211","files":-1,"time":1387704005,"description":"Genre                                    : XXX\nFormat                                   : MPEG-4\nFormat profile                           : Base Media / Version 2\nCodec ID                                 : mp42\nFile size                                : 1.45 GiB\nDuration                                 : 3h 29mn 45s\nOverall bit rate mode                    : Variable\nOverall bit rate                         : 990 Kbps\n\nVideo\nID                                       : 1\nFormat                                   : AVC\nFormat/Info                              : Advanced Video Codec\nFormat profile                           : &lt;a class=&quot;__cf_email__&quot; href=&quot;/cdn-cgi/l/email-protection&quot; data-cfemail=&quot;e9a1808e81a9a5dac7d9&quot;&gt;[email&amp;#160;protected]&lt;/a&gt;&lt;script cf-hash='f9e31' type=&quot;text/javascript&quot;&gt;\n/* &lt;![CDATA[ */!function(){try{var t=&quot;currentScript&quot;in document?document.currentScript:function(){for(var t=document.getElementsByTagName(&quot;script&quot;),e=t.length;e--;)if(t[e].getAttribute(&quot;cf-hash&quot;))return t[e]}();if(t&amp;&amp;t.previousSibling){var e,r,n,i,c=t.previousSibling,a=c.getAttribute(&quot;data-cfemail&quot;);if(a){for(e=&quot;&quot;,r=parseInt(a.substr(0,2),16),n=2;a.length-n;n+=2)i=parseInt(a.substr(n,2),16)^r,e+=String.fromCharCode(i);e=document.createTextNode(e),c.parentNode.replaceChild(e,c)}}}catch(u){}}();/* ]]&gt; */&lt;/script&gt;\nFormat settings, CABAC                   : Yes\nFormat settings, ReFrames                : 4 frames\nCodec ID                                 : avc1\nCodec ID/Info                            : Advanced Video Coding\nDuration                                 : 3h 29mn 45s\nBit rate mode                            : Variable\nBit rate                                 : 923 Kbps\nMaximum bit rate                         : 2 150 Kbps\nWidth                                    : 720 pixels\nHeight                                   : 408 pixels\nDisplay aspect ratio                     : 16:9\nFrame rate mode                          : Constant\nFrame rate                               : 29.970 fps\nStandard                                 : NTSC\nColor space                              : YUV\nChroma subsampling                       : 4:2:0\nBit depth                                : 8 bits\nScan type                                : Progressive\nBits/(Pixel*Frame)                       : 0.105\nStream size                              : 1.35 GiB (93%)\n\nAudio\nID                                       : 2\nFormat                                   : AAC\nFormat/Info                              : Advanced Audio Codec\nFormat profile                           : LC\nCodec ID                                 : 40\nDuration                                 : 3h 29mn 45s\nBit rate mode                            : Variable\nBit rate                                 : 61.8 Kbps\nMaximum bit rate                         : 70.7 Kbps\nChannel(s)                               : 2 channels\nChannel positions                        : Front: L R\nSampling rate                            : 48.0 KHz\nCompression mode                         : Lossy\nStream size                              : 100 MiB (7%)\nLanguage                                 : English\n\nScreens. &lt;a href=&quot; http://bayimg.com/hAeHEaAFO&quot; rel=&quot;nofollow&quot; target=&quot;_NEW&quot;&gt; http://bayimg.com/hAeHEaAFO&lt;/a&gt;\n\n         &lt;a href=&quot; http://bayimg.com/HAehfAaFo&quot; rel=&quot;nofollow&quot; target=&quot;_NEW&quot;&gt; http://bayimg.com/HAehfAaFo&lt;/a&gt;\n\n         &lt;a href=&quot; http://bayimg.com/HaehGaaFo&quot; rel=&quot;nofollow&quot; target=&quot;_NEW&quot;&gt; http://bayimg.com/HaehGaaFo&lt;/a&gt;\n\n         &lt;a href=&quot; http://bayimg.com/hAehIaaFo&quot; rel=&quot;nofollow&quot; target=&quot;_NEW&quot;&gt; http://bayimg.com/hAehIaaFo&lt;/a&gt;\n\nCovers. &lt;a href=&quot; http://bayimg.com/HaEHLAaFo&quot; rel=&quot;nofollow&quot; target=&quot;_NEW&quot;&gt; http://bayimg.com/HaEHLAaFo&lt;/a&gt;\n\nEnjoy.","torrent":{"xt":"urn:btih:8ce4323ad554d8d82cc5d8957c7fd16c9cb7bc11","amp;dn":"Lex.Is.A.Mother.Fucker.2.HDRip.SS.x264.Iou1","amp;tr":["udp%3A%2F%2Ftracker.openbittorrent.com%3A80","udp%3A%2F%2Fopen.demonii.com%3A1337","udp%3A%2F%2Ftracker.coppersurfer.tk%3A6969","udp%3A%2F%2Fexodus.desync.com%3A6969"],"infoHash":"8ce4323ad554d8d82cc5d8957c7fd16c9cb7bc11","infoHashBuffer":{"type":"Buffer","data":[140,228,50,58,213,84,216,216,44,197,216,149,124,127,209,108,156,183,188,17]},"announce":[],"urlList":[]}}